HIERARCHY
ROOT HipCenter
{
    OFFSET 0.0 0.0 -0.0
    CHANNELS 6 Xposition Yposition Zposition Zrotation Xrotation Yrotation
    JOINT Spine
    {
        OFFSET 0.0 9.805697441101074 0.0
        CHANNELS 3 Zrotation Xrotation Yrotation
        JOINT ShoulderCenter
        {
            OFFSET 0.0 28.649211883544922 0.0
            CHANNELS 3 Zrotation Xrotation Yrotation
            JOINT LeftShoulder
            {
                OFFSET 18.34325408935547 0.0 0.0
                CHANNELS 3 Zrotation Xrotation Yrotation
                JOINT LeftElbow
                {
                    OFFSET 29.939769744873047 0.0 0.0
                    CHANNELS 3 Zrotation Xrotation Yrotation
                    JOINT LeftWrist
                    {
                        OFFSET 28.815670013427734 0.0 0.0
                        CHANNELS 3 Zrotation Xrotation Yrotation
                        JOINT LeftHand
                        {
                            OFFSET 3.7316408157348633 0.0 0.0
                            CHANNELS 3 Zrotation Xrotation Yrotation
                            End Site
                            {
                                OFFSET 1.4926562309265137 0.0 0.0
                            }
                        }
                    }
                }
            }
            JOINT RightShoulder
            {
                OFFSET -18.34325408935547 0.0 0.0
                CHANNELS 3 Zrotation Xrotation Yrotation
                JOINT RightElbow
                {
                    OFFSET -29.939769744873047 0.0 0.0
                    CHANNELS 3 Zrotation Xrotation Yrotation
                    JOINT RightWrist
                    {
                        OFFSET -28.815670013427734 0.0 0.0
                        CHANNELS 3 Zrotation Xrotation Yrotation
                        JOINT RightHand
                        {
                            OFFSET -3.7316408157348633 0.0 0.0
                            CHANNELS 3 Zrotation Xrotation Yrotation
                            End Site
                            {
                                OFFSET -1.4926562309265137 0.0 0.0
                            }
                        }
                    }
                }
            }
            End Site
            {
                OFFSET 0.0 11.459683418273926 0.0
            }
        }
    }
    JOINT LeftHip
    {
        OFFSET 14.563909530639648 0.0 0.0
        CHANNELS 3 Zrotation Xrotation Yrotation
        JOINT LeftKnee
        {
            OFFSET 0.0 -39.30944061279297 0.0
            CHANNELS 3 Zrotation Xrotation Yrotation
            JOINT LeftAnkle
            {
                OFFSET 0.0 -42.28388977050781 0.0
                CHANNELS 3 Zrotation Xrotation Yrotation
                JOINT LeftFoot
                {
                    OFFSET 0.0 -10.249992370605469 0.0
                    CHANNELS 3 Zrotation Xrotation Yrotation
                    End Site
                    {
                        OFFSET 0.0 0.0 4.099997520446777
                    }
                }
            }
        }
    }
    JOINT RightHip
    {
        OFFSET -14.563909530639648 0.0 0.0
        CHANNELS 3 Zrotation Xrotation Yrotation
        JOINT RightKnee
        {
            OFFSET 0.0 -39.30944061279297 0.0
            CHANNELS 3 Zrotation Xrotation Yrotation
            JOINT RightAnkle
            {
                OFFSET 0.0 -42.28388977050781 0.0
                CHANNELS 3 Zrotation Xrotation Yrotation
                JOINT RightFoot
                {
                    OFFSET 0.0 -10.249992370605469 0.0
                    CHANNELS 3 Zrotation Xrotation Yrotation
                    End Site
                    {
                        OFFSET 0.0 0.0 4.099997520446777
                    }
                }
            }
        }
    }
}
MOTION
Frames: 10
Frame Time: 0.03333333333333333
6.599999904632568 -1.0 50.70000457763672 -2.9207245253731244 0.5838621938391262 0.7982300957662515 4.036691252527823 7.8024180890587465 -1.1952266110698253 -3.0786013508450985e-08 -3.852729679474168e-08 4.565756304912467 95.83472757856289 -23.120630795592877 159.14492041515018 3.4537538038933823e-07 1.1231045069929017e-06 105.83300218973521 -2.4383871668814408e-06 1.0135222098669388 9.310781535873142 1.2722218725854067e-14 0.0 0.0 -125.07593106482304 -18.573831488314053 153.94460372624906 -4.140872155577685e-07 2.764966682897002e-06 -138.74565629698822 -179.99999861213124 29.543698635072598 115.43836286244667 0.0 0.0 1.5902773407317584e-15 3.3594170388086595 9.511869707531158 -28.693247622334706 -0.7336172782976789 -3.8917584432780483 3.957681092608765 77.08671475816068 -58.57359646072902 126.7455991224776 1.7655625192200634e-31 6.3611093629270335e-15 -3.1805546814635168e-15 -0.38841842348591116 2.3418023702443227 17.630244118435524 -0.4609324968107047 6.7192394369394535 5.410629313730614 -75.51548140843916 -61.623679359875844 -117.04436648912115 -3.1805546814635168e-15 6.3611093629270335e-15 1.7655625192200634e-31
6.599999904632568 -1.0 50.599998474121094 -2.337306328834907 1.1681936044259817 0.4566736276025779 3.400893727239563 7.643001701538995 -1.1641438130333481 6.559555287173329e-08 -1.3327615241274582e-07 5.229268816964876 97.54508479306932 -27.337484657552455 159.23301878828212 1.7053755626186077e-06 -4.357049563940187e-06 108.12231813738295 4.309052046451089e-06 17.081709088925656 10.535230312757172 0.0 0.0 0.0 -124.28564254657654 -17.12900792450817 155.88644518867252 2.2090992464130643e-06 2.9813962401452275e-06 -138.65408705045684 -179.99999914367223 28.863380645579955 116.20385665875601 3.1805546814635168e-15 1.3241718894150476e-31 4.770832022195275e-15 2.709647321003284 8.801867303981904 -28.678103353248137 -0.7931119291090216 -3.751407850572226 3.7934883069018803 76.31990278171186 -57.95466042954835 125.94803759221791 4.4139062980501586e-32 -1.5902773407317582e-15 3.1805546814635164e-15 -0.9909610786271362 1.6211231303366462 17.851193343257883 -0.5595187665191186 6.8910711477069855 5.575550742366802 -75.50623092740747 -61.59565129897437 -117.17509669791264 4.770832022195275e-15 1.9862578341225716e-31 4.770832022195275e-15
6.5 -0.8999999761581421 50.5 -2.950779066249943 1.1796501613616204 0.7498135134834428 4.4617714338628485 8.192787959179066 -1.3134416626148142 1.8627563720653273e-07 -3.684274104125384e-07 5.502756898870721 98.6810329677929 -31.011705852037156 159.92540560658503 2.019403664199799e-06 3.915875342453607e-06 111.31977187765557 -5.570201652704082e-06 22.86249463467928 10.146119561272993 3.1805546814635168e-15 0.0 0.0 -124.73866161696493 -15.294587488155452 156.94808720019185 1.166436286052568e-06 -1.5174714752926906e-06 -138.2490201119468 -179.99999728532677 27.23619230153737 115.86989513899813 -3.1805546814635164e-15 0.0 0.0 3.3641576231073613 8.61844385728839 -28.644058499339817 -0.7022235988125761 -3.6698081060553394 3.731959466172085 75.94429145742434 -58.1733782314533 125.65782576569416 -8.827812596100317e-31 7.951386703658793e-15 1.272221872585407e-14 -0.36802216721663655 1.745358361014511 18.35429189868823 -0.5548490389465528 6.640302441085982 5.449931915729038 -75.53587918249531 -60.926099031967865 -117.80419985886283 -3.1805546814635176e-15 -7.951386703658792e-16 -3.1805546814635176e-15
6.5 -1.0 50.400001525878906 -2.3373035910103903 1.168149134034901 0.4546953058233178 3.8120661729433 8.820925836456864 -1.4009008907087375 -2.6096466135555226e-08 8.743185717864622e-08 6.611922819227441 100.52028607617645 -33.54669023013981 161.9360070031827 -2.5013747977146644e-06 -5.102721456905528e-06 114.33661703709578 2.6868505874921525e-06 11.817610431729518 12.844446793132404 -3.1805546814635164e-15 -6.361109362927033e-15 -1.7655625192200634e-31 -123.66380010796829 -13.736190116853573 159.14437997243226 -2.190748118787797e-06 2.867275592463792e-06 -138.14735207971756 -179.99999360296164 25.385634817784137 114.95716200281683 -6.3611093629270335e-15 -8.827812596100317e-32 1.5902773407317584e-15 2.708261607897294 8.65133255880983 -28.75949548698772 -0.6015869154059562 -3.8051050318031856 3.8261611463309406 75.5672374851818 -57.74196566733022 125.03291597702656 -3.1805546814635168e-15 -6.3611093629270335e-15 1.5902773407317582e-15 -0.8599115887662617 1.627192570620516 18.3026051997898 -0.539340262608589 6.7373084004137 5.406182937051743 -75.35962240879589 -61.25706344703366 -116.84884800253297 3.1805546814635168e-15 -6.3611093629270335e-15 -1.5902773407317582e-15
6.5 -0.8999999761581421 50.30000305175781 -2.337303607794811 1.1681490545028739 0.7414269624711212 3.6665471823023017 9.429314566028067 -1.426617000929372 5.799627075784656e-08 6.092210904186164e-07 7.462968019781545 103.14808477568307 -35.067989855507854 165.83089897365372 -6.8184755784363e-06 -2.4201265418716125e-06 117.97290774710304 4.103943010006687e-07 27.109224841498094 12.349427918452127 -3.531125038440127e-31 6.3611093629270335e-15 6.3611093629270335e-15 -121.97988011210342 -12.056254234157448 161.8526716737385 -2.7559242283188215e-06 -2.2716490094950283e-06 -137.54462448369378 179.99999920197556 24.164250328129185 115.87930596937103 0.0 0.0 -7.951386703658792e-15 2.746961363340325 8.310662061191355 -28.261623975378917 -0.804246496114595 -3.5062092113122816 3.542136990761751 75.59148877413266 -58.32367804039772 125.04162040103402 0.0 0.0 -3.1805546814635164e-15 -0.8458980624055054 1.4857582271461758 17.935627229528414 -0.6017188418767241 7.070223440367448 5.755394986208029 -76.05462404726633 -61.12520450213966 -118.04814032949176 4.770832022195275e-15 -5.565970692561154e-15 2.3173008064763334e-31
6.400000095367432 -0.8999999761581421 50.19999694824219 -2.3373063275076693 1.1681935860122115 1.0211473497703218 2.913725929109231 10.014327608422908 -1.4373203095106515 -7.752013916025915e-08 5.49429549899639e-07 8.503433517175099 106.37123006053207 -34.81391001990844 171.30464960484002 -1.7350310267077234e-07 4.402949160072906e-06 121.28251788871185 -3.394306785585485e-06 20.49368780675689 15.450308783404461 -3.531125038440127e-31 -6.3611093629270335e-15 -6.3611093629270335e-15 -119.12036931254319 -10.05936023423237 164.9532074276191 -1.0518437267419533e-06 2.7480895593933442e-06 -137.18263941109436 -179.99999816306973 22.21352349681349 116.52018283171198 0.0 6.3611093629270335e-15 0.0 2.789013426739284 8.322400525501015 -28.651786281848867 -0.5432275718306613 -3.706457661179353 3.808610261666614 74.31053415999627 -57.75892235174625 124.34780870464628 -3.1805546814635168e-15 8.827812596100317e-32 -3.1805546814635168e-15 -0.843778272304666 1.635569218115071 18.41304494015422 -0.5943646512663437 6.811323409792446 5.561503705830293 -75.59564789670013 -61.0425052806232 -117.67622808737968 4.770832022195275e-15 -6.620859447075238e-32 -1.5902773407317584e-15
6.300000190734863 -0.8999999761581421 50.099998474121094 -2.33730622739939 1.7519648640661318 1.8130945558859601 3.035391536764429 9.585687893370876 -1.4028501164095761 1.1822063750538241e-07 1.1401785377891385e-07 8.907811653456637 108.34466223409746 -33.21048249119208 177.13672359247045 1.923618626821312e-06 -4.09448213273919e-06 125.34764948048614 1.5675530385894165e-06 25.537387034108736 17.55348262146632 6.3611093629270335e-15 0.0 0.0 -116.93810291677721 -9.030608811443996 168.86515660672177 -5.269647149113727e-07 1.945224391004454e-06 -136.57665862780684 -179.99999991748103 18.89695486714225 116.54698302715617 0.0 0.0 0.0 3.0250111837437315 7.36888371365276 -28.21124597493453 -0.7856926872816501 -3.7101970013768106 3.863462257570074 72.02814503628015 -58.6594832858533 122.0401038555074 0.0 0.0 -1.5902773407317582e-15 -0.8348883575011634 1.2027630695453182 18.195524590487302 -0.4437694733770321 6.641459249729477 5.367547674423618 -77.20348648482486 -60.74067033903436 -119.18779051772746 1.590277340731758e-15 -6.361109362927033e-15 -4.770832022195274e-15
6.199999809265137 -0.8999999761581421 50.0 -2.361375184224734 1.769984230122392 2.657349319734647 2.8239950896284554 10.123089588027392 -1.442643743425431 1.2373641209227995e-07 -1.3738361292824192e-07 9.115578880779827 110.1198582520855 -31.261562858228046 -176.66780249003688 -3.356531297225308e-08 -1.0062550432542942e-06 128.79555571651414 2.7151273938383392e-06 27.014582724883052 19.69845154470149 0.0 0.0 3.180554681463516e-15 -113.23424558290124 -7.212440230566107 172.86163232119077 2.567149554682802e-06 3.82242020722917e-06 -135.84951519426872 -179.9999961699505 18.706662805566687 116.54882635456197 -6.3611093629270335e-15 -6.3611093629270335e-15 -4.770832022195275e-15 3.1497980281717286 7.153696534933921 -28.16014427645182 -0.7939747371774933 -3.8045819997721235 3.95714428289526 70.01970532811544 -59.34951158741383 119.63858105200568 -1.7655625192200634e-31 -6.3611093629270335e-15 -3.1805546814635168e-15 -0.7873712401753152 1.3347999691553922 18.582702587848747 -0.35070503808970005 6.519788281840047 5.245075591274834 -77.34963103283656 -59.59290324285498 -119.49517493889047 -3.1805546814635168e-15 -7.951386703658792e-16 -2.2069531490250793e-32
6.099999904632568 -0.8999999761581421 50.0 -2.3373065586477755 1.751964717296428 3.502564515539408 2.157626126945952 10.383091398834404 -1.365161034227438 3.825615532761855e-08 -1.4493304244605152e-06 9.03403077606047 112.08152156180869 -29.128281330140023 -171.5440357136246 -2.7804698809211842e-06 -1.8127015923489383e-06 132.69279599475144 7.631780090425043e-07 32.318105218738026 25.049489940310757 4.4139062980501586e-32 -1.5902773407317584e-15 3.1805546814635168e-15 -110.1713635458026 -6.1760030938595 175.73550055669568 -1.375493035783647e-06 -5.352853530981351e-07 -134.98617431775395 179.99999791199548 16.76557446928354 118.16246127022927 -1.7655625192200634e-31 -6.361109362927032e-15 -3.180554681463516e-15 3.2235496616141353 6.9750545389114125 -27.842690121623647 -0.8141565141444236 -3.9062503943869884 4.114083605334697 68.68869236077282 -60.49021106979736 118.29638073816884 6.3611093629270335e-15 4.770832022195275e-15 1.590277340731758e-15 -0.6344507478845778 1.6352650504388602 18.368328561027056 -0.5108750573420857 6.316651904910207 5.0508397262189515 -77.78973203436514 -59.21310083656499 -119.8969568793582 -1.5902773407317588e-15 7.156248033292914e-15 1.5902773407317588e-15
6.0 -0.8999999761581421 49.900001525878906 -2.3373063683976216 2.3353722018494123 4.298351599420154 1.8520279217637101 9.799228935119482 -1.3022213246343675 -4.467054978963519e-08 7.832720859337596e-07 9.155774367226108 113.91535309526826 -27.77823820560188 -167.20621330411987 -1.754994622162212e-07 7.620494902172999e-07 135.77710934007536 -1.9554429079276885e-06 44.26910555096522 35.743798565753444 -1.1034765745125397e-32 -7.951386703658791e-16 -1.5902773407317582e-15 -108.12818979562101 -4.913603378932648 179.08978872949612 1.5342766850731441e-06 -3.781024315676947e-07 -134.43980597752375 -179.99999914477942 14.495020748052822 117.83085557501991 0.0 6.3611093629270335e-15 0.0 3.2505041946850635 6.047132454641675 -27.78636895865588 -0.8135375737514601 -3.686736885016426 3.9218497331607285 66.71545464534145 -60.717304583018716 116.4134350251227 0.0 6.3611093629270335e-15 0.0 -0.6484333122379999 1.0535518933814785 18.644119747834306 -0.41428965624840325 6.633314563527084 5.220514740111094 -79.66411412195501 -58.63344839690063 -121.59071819025593 -4.770832022195275e-15 -7.951386703658791e-16 -1.5902773407317584e-15
